Patient4_TMGait_0pt8_01_left_24_EMG.mot
version=1
nRows=26
nColumns=33
inDegrees=no
endheader
time	1LAddLong	2LGlutMax	3LGlutMed	4LIliopsoas	5LSemiMemb	6LBicFemLong	7LRecFem	8LVastMed	9LVastLat	10LGasMed	11LTibAnt	12lTibPost	13LPeroneusLong	14LSol	15LExtDigLong	16LFlexDigLong	17RAddLong	18RGlutMax	19RGlutMed	20RIliopsoas	21RSemiMemb	22RBicFemLong	23RRecFem	24RVastMed	25RVastLat	26RGasMed	27RTibAnt	28RTibPost	29RPeroneusLong	30RSol	31RExtDigLong	32RFlexDigLong
26.19	0.002747	0.70252	-0.036163	-0.023041	-0.007019	-0.034027	-0.081024	0.00473	0.19745	-0.016327	-0.009308	0	0.078125	0.083771	0.35141	0.021667	0.017395	1.0623	0.2272	0.001526	0.013428	-0.045319	0.2977	-0.022583	0.10223	-0.007019	-1.068	-0.003204	-0.0177	-0.31982	-0.002289	-0.006714
26.191	0.004578	0.68756	-0.031738	-0.014954	0.000458	-0.045929	-0.081329	0.007477	0.2301	-0.079803	0.049744	0.003662	0.035095	-0.015717	0.15503	0.022278	0.02182	0.93185	-0.13107	0.04715	0.006561	-0.061188	0.37201	0.0737	0.15411	-0.015564	-0.48157	-0.004272	-0.10147	-0.32547	-0.002747	-0.00061
26.192	0.006561	0.70572	-0.032196	0.010681	-0.004883	-0.045471	-0.076447	0.002594	0.26993	-0.08316	0.080872	0.006561	0.08255	-0.16693	0.15595	0.024719	0.031586	0.8194	-0.4982	0.10986	0.009308	-0.053406	0.3595	0.075684	0.2948	-0.007935	-0.031586	-0.003662	-0.065308	-0.24704	-0.001221	0
26.193	0.014038	0.69702	-0.044403	0.01358	0.002747	-0.037079	-0.076141	0.002136	0.28748	-0.049591	0.070496	0.006256	0.1503	-0.3569	-0.073547	0.015411	0.004578	0.71793	-0.48675	0.053406	0.006714	-0.018768	0.096436	0.10727	0.15305	0.002136	0.027313	-0.001678	0.075531	-0.25314	-0.000153	0
26.194	0.007477	0.69107	-0.047607	0.012054	0.009613	-0.04364	-0.083313	0.004272	0.30563	-0.078278	0.13336	-0.000153	0.078278	-0.3624	-0.19623	0.016022	0.012054	0.58701	-0.57678	0.033722	-0.043945	0.026398	-0.33554	0.059967	0.16998	0.019226	-0.033875	0.000458	0.27466	-0.34805	-0.000305	0.002136
26.195	0.011902	0.62576	-0.039215	0.021362	0.008545	-0.059204	-0.074463	0.004578	0.31433	-0.08316	0.036469	0.006104	0.015564	-0.16083	-0.12116	0.014343	0.009308	0.45563	-0.93948	0.037384	-0.16388	0.085602	-0.57907	-0.14572	0.26504	0.023804	-0.41214	0.012817	0.37094	-0.28442	-0.001831	0.006866
26.196	0.013123	0.62622	-0.046844	0.002441	0.015564	-0.056152	-0.05249	0.006256	0.31265	-0.0383	-0.075684	0.000153	0.006714	-0.081177	-0.10178	0.005646	0.00824	0.37903	-0.79727	0.00351	-0.15762	0.049286	-0.59158	-0.18524	0.21179	0.012054	-0.33295	0.000305	0.13901	-0.14053	-0.002441	-0.004883
26.197	0.010834	0.62683	-0.041199	-0.02594	0.036163	-0.06134	-0.067444	-0.003967	0.3508	0.005341	-0.059052	0.006866	-0.021515	-0.06897	-0.003967	0.007019	0.006409	0.35248	-0.88699	-0.051575	0.034943	-0.021057	-0.34897	-0.15747	0.16037	0.005798	-0.62775	-0.00061	0.044861	0.018463	-0.004883	0.000916
26.198	0.010071	0.62073	-0.055237	-0.018463	-0.007629	-0.046844	-0.06012	0.003815	0.34439	0.025787	-0.055695	0.009308	-0.002899	-0.059814	0.055389	0.017853	0.025482	0.29678	-0.22324	-0.050049	-0.033875	-0.062866	0.050659	-0.31708	-0.24216	0.008392	-0.35629	0.000153	-0.032196	0.11429	-0.004425	-0.000305
26.199	0.009308	0.57388	-0.06897	-0.004883	0.006409	-0.045013	-0.048981	0.005493	0.33737	-0.010071	0.002289	0.002441	-0.00885	0.001678	0.094299	0.02655	0.005798	0.21271	-0.67886	-0.001373	-0.13794	-0.015259	0.010376	-0.31982	-0.41489	0.006714	-0.29846	-0.004272	0.020752	0.27374	0.001526	-0.007019
26.2	0.004883	0.53299	-0.072632	-0.001526	0.009918	-0.040894	-0.03891	0.000916	0.31586	-0.08194	0.057983	0.003815	-0.004883	0.021667	0.077515	0.019226	-0.028076	0.073395	-0.065613	0.045776	-0.24048	0.042877	-0.072937	-0.40497	-0.058594	-0.009613	-0.45319	-0.006256	0.11719	0.42496	-0.000916	-0.006409
26.201	0.00885	0.50278	-0.079651	0.005798	-0.000305	-0.02655	-0.042725	0.006561	0.31632	-0.11795	0.062714	-0.001068	-0.007477	0.044861	0.030823	0.010681	0.002289	0.058136	0.78507	0.098419	-0.099182	0.015869	-0.17303	-0.36819	0.15778	-0.009308	-0.31754	-0.005798	0.14633	0.30914	-0.000153	-0.014343
26.202	0.008545	0.50552	-0.079498	0.000458	0.004883	-0.028381	-0.024719	0.004883	0.31555	-0.092163	0.000305	0.003204	0.001831	0.057678	0.040436	0.01297	0.002594	0.065308	0.21988	0.11139	0.018005	-0.004578	-0.2298	-0.24078	0.24628	-0.014343	-0.065918	-0.00351	0.036621	0.31036	-0.004425	-0.01358
26.203	0.006866	0.4451	-0.074463	0.011597	0.007324	-0.037537	-0.032806	0.00412	0.31708	-0.066223	0.010376	0.003967	0.019684	0.061798	0.11032	0.01297	-0.027161	-0.048676	0.041351	0.045471	0.059509	0.011139	-0.12772	-0.065613	0.33173	-0.016785	0.047913	-0.003815	-0.13412	0.30716	-0.001373	-0.00885
26.204	0.009308	0.41077	-0.055847	0.024567	-0.001526	-0.030823	-0.024567	-0.001221	0.31296	-0.050507	-0.06485	-0.000153	0.03952	0.037384	0.059052	0.015564	-0.03418	0.019379	0.59326	-0.066071	0.019226	-0.04303	-0.36392	-0.10956	0.38895	-0.014648	0.017395	0.003662	-0.16876	0.19653	0.001068	-0.007935
26.205	0.008087	0.32913	-0.065613	0.006561	0.001068	-0.039825	-0.025482	0.002136	0.31921	-0.02182	-0.037689	0.010223	0.0383	0.049591	0.030975	0.012207	0.008698	0.1152	0.56671	-0.12116	-0.036469	-0.050659	-0.16464	0.017853	0.22736	-0.012054	0.070801	-0.002289	-0.12985	0.10696	-0.003357	-0.006256
26.206	0.00885	0.31189	-0.018921	0.019226	-0.003204	-0.039063	-0.01358	0.005035	0.31662	-0.027771	-0.001678	0.003204	0.00885	0.046844	0.021667	0.016785	-0.00061	0.10986	-0.4512	-0.16007	-0.024719	-0.064697	0.24094	0.20416	-0.19043	-0.007324	-0.10284	0.003662	-0.12497	-0.028534	-0.000763	-0.00412
26.207	0.012054	0.22018	-0.021667	0.005035	0.003204	-0.04425	-0.005951	0.006866	0.31433	-0.016022	0.000458	0.002289	0.011292	0.049286	0.001068	0.006561	0.000763	-0.042114	-1.0793	-0.072021	-0.005798	-0.038605	0.40894	0.11307	-0.6543	0.00412	-0.23148	0.006256	-0.021057	-0.001221	-0.003204	-0.007935
26.208	0.01297	0.16724	-0.01709	0.031281	-0.002289	-0.04364	-0.012665	0.002289	0.32028	-0.017853	0.002441	0.007172	0.055695	0.059814	0.010223	0.003967	-0.012512	-0.1181	-1.0909	-0.002289	-0.036316	-0.014801	0.34409	-0.080872	-0.29907	-0.011444	-0.094452	-0.00351	0.045929	-0.029144	0.001068	-0.005646
26.209	0.009308	0.15701	-0.008698	0.014343	-0.013885	-0.071259	-0.013428	0.004578	0.31586	-0.003204	0.023041	-0.000763	0.042877	0.02182	0.022125	0.004272	0.023193	-0.090027	0.24368	0.054016	-0.080719	-0.039978	0.39505	-0.22186	-0.25604	-0.0177	0.02655	0.001373	0.12161	0.001068	0.001678	0.00412
26.21	0.018921	0.16022	-0.030212	0.010529	0.003815	-0.061951	0.006866	0.000305	0.31815	0.001984	0.005035	0.004425	0.019836	0.017853	0.016632	0.006256	0.02121	-0.089264	1.0121	0.004578	-0.047913	-0.008087	0.19898	-0.40131	-0.28305	-0.013123	0.081329	0.000458	0.093994	-0.086975	-0.002594	0.000763
26.211	0.010681	0.17975	-0.03418	-0.009766	0.001984	-0.072632	-0.010986	0.000305	0.31509	-0.036316	0.010681	-0.006561	0.027313	-0.048523	0.029907	0.003204	-0.012817	-0.1976	0.96069	0.066986	0.090637	-0.00412	-0.18417	-0.29694	-0.34882	-0.009155	0.031891	-0.002289	-0.023193	-0.17441	0.002136	-0.00351
26.212	0.006866	0.19928	-0.045319	-0.012207	0.010223	-0.095825	-0.011292	0.003967	0.3064	-0.060577	0.00412	0.002441	0.014343	-0.028687	0.015411	0.011902	-0.028687	-0.32516	0.69885	0.049896	0.040283	-0.00946	-0.38452	0.044708	-0.44769	-0.011292	-0.063782	-0.002136	-0.098572	-0.02533	-0.004883	-0.011139
26.213	0.012817	0.26916	-0.015259	-0.014954	0.000458	-0.081329	-0.013123	0.003204	0.30716	-0.15656	-0.019989	0.002747	0.036926	0.015259	-0.007935	-0.003967	-0.002136	-0.36529	0.20126	0.058899	-0.17548	0.037537	-0.43243	0.24078	-0.26779	-0.011444	-0.10483	0.001678	-0.092468	-0.009766	-0.003204	-0.010071
26.214	0.013275	0.37338	-0.015564	-0.013733	0.00946	-0.087738	-0.006104	0.005188	0.2948	-0.16022	-0.054779	0.003662	0.075684	0.006866	-0.01358	0.008698	-0.000305	-0.327	0.39871	0.094299	-0.19333	0.024109	-0.51056	0.44723	0.28763	-0.018616	-0.035095	0.001984	-0.055084	0.039673	-0.002899	-0.015411
26.215	0.016327	0.43335	-0.034637	0.004883	0.010376	-0.093842	0.007019	0.004272	0.27268	-0.091553	-0.055847	-0.000458	0.042419	-0.033875	0.006561	-0.006409	-0.00885	-0.30243	0.25787	0.10391	-0.19623	0.077209	-0.50797	0.26566	0.77972	-0.014038	0.1326	0.001831	-0.038452	0.23346	-0.002441	0.000763
